<?xml version="1.0" standalone="no"?>
<!DOCTYPE svg PUBLIC "-//W3C//DTD SVG 1.1//EN" "http://www.w3.org/Graphics/SVG/1.1/DTD/svg11.dtd">
<svg xmlns="http://www.w3.org/2000/svg">
<metadata>Generated by Fontastic.me</metadata>
<defs>
<font id="ital" horiz-adv-x="512">
<font-face font-family="ital" units-per-em="512" ascent="480" descent="-32"/>
<missing-glyph horiz-adv-x="512" />

<glyph glyph-name="logout" unicode="&#97;" d="M323 69l-263 0 0 374 263 0c6 0 10 5 10 11l0 39c0 6-4 10-10 10l-312 0c-6 0-11-4-11-10l0-473c0-6 5-11 11-11l312 0c6 0 10 5 10 11l0 38c0 6-4 11-10 11z m186 195l-143 142c-3 4-10 4-14 0l-34-34c-4-4-4-11 0-15l64-64-278 0c-6 0-10-5-10-11l0-52c0-6 4-11 10-11l278 0-64-64c-4-4-4-11 0-15l34-33c2-2 4-4 7-4 3 0 6 2 8 4l142 142c2 2 3 4 3 7 0 3-1 6-3 8z"/>
<glyph glyph-name="calendar" unicode="&#98;" d="M125 390l7 0c12 0 21 9 21 20l0 77c0 11-9 20-21 20l-7 0c-11 0-20-9-20-20l0-77c0-11 9-20 20-20z m259 1l7 0c11 0 20 9 20 20l0 76c0 11-9 20-20 20l-7 0c-12 0-21-9-21-20l0-76c0-11 9-20 21-20z m95 75l-52 0 0-60c0-21-16-32-36-32l-7 0c-21 0-37 17-37 37l0 55-178 0 0-56c0-20-16-36-37-36l-7 0c-20 0-36 16-36 36l0 56-56 0c-18 0-33-15-33-33l0-396c0-18 15-32 33-32l446 0c18 0 33 14 33 32l0 396c0 18-15 33-33 33z m0-429l-446 0 0 299 446 0 0-299c0 0 0 0 0 0z m-206 199l59 0c2 0 4 2 4 4l0 51c0 3-2 4-4 4l-59 0c-2 0-4-1-4-4l0-51c0-2 2-4 4-4z m96 0l59 0c2 0 4 2 4 4l0 51c0 3-2 4-4 4l-59 0c-2 0-4-1-4-4l0-51c0-2 2-4 4-4z m-288-83l59 0c2 0 4 2 4 4l0 51c0 2-2 4-4 4l-59 0c-2 0-4-2-4-4l0-51c0-2 2-4 4-4z m96 0l59 0c2 0 4 2 4 4l0 51c0 2-2 4-4 4l-59 0c-2 0-4-2-4-4l0-51c0-2 2-4 4-4z m96 0l59 0c2 0 4 2 4 4l0 51c0 2-2 4-4 4l-59 0c-2 0-4-2-4-4l0-51c0-2 2-4 4-4z m96 0l59 0c2 0 4 2 4 4l0 51c0 2-2 4-4 4l-59 0c-2 0-4-2-4-4l0-51c0-2 2-4 4-4z m-229-24l-59 0c-2 0-4-2-4-5l0-51c0-2 2-4 4-4l59 0c2 0 4 2 4 4l0 51c0 3-2 5-4 5z m96 0l-59 0c-2 0-4-2-4-5l0-51c0-2 2-4 4-4l59 0c2 0 4 2 4 4l0 51c0 3-2 5-4 5z m96 0l-59 0c-2 0-4-2-4-5l0-51c0-2 2-4 4-4l59 0c2 0 4 2 4 4l0 51c0 3-2 5-4 5z m96 0l-59 0c-2 0-4-2-4-5l0-51c0-2 2-4 4-4l59 0c2 0 4 2 4 4l0 51c0 3-2 5-4 5z"/>
<glyph glyph-name="chat" unicode="&#99;" d="M472 352l-14 0 0-153c0-23-14-45-41-45l-273 0 0-7c0-21 24-42 49-42l208 0 80-47-12 47 3 0c25 0 36 21 36 42l0 169c0 21-11 36-36 36z m-96 106l-316 0c-28 0-60-24-60-48l0-192c0-22 27-37 53-40l-17-64 109 64 231 0c28 0 53 17 53 40l0 192c0 24-25 48-53 48z m-268-161c-16 0-29 13-29 28 0 16 13 29 29 29 16 0 29-13 29-29 0-15-13-28-29-28z m107 0c-16 0-29 13-29 28 0 16 13 29 29 29 15 0 28-13 28-29 0-15-13-28-28-28z m106 0c-15 0-28 13-28 28 0 16 13 29 28 29 16 0 29-13 29-29 0-15-13-28-29-28z"/>
<glyph glyph-name="ok" unicode="&#100;" d="M512 387l-319-319c-2-3-7-3-10 0l-181 181c-3 3-3 8 0 10l44 44c3 3 7 3 10 0l132-132 270 270c3 3 8 3 10 0l44-44c3-2 3-7 0-10z"/>
<glyph glyph-name="clock" unicode="&#101;" d="M256 512c-141 0-256-115-256-256 0-142 115-257 256-257 142 0 257 115 257 257 0 141-115 256-257 256z m0-458c-111 0-201 90-201 202 0 111 90 201 201 201 112 0 202-90 202-201 0-112-90-202-202-202z m134 209l-115 0 0 139c0 12-10 21-21 21-12 0-21-9-21-21l0-160c0-11 9-21 21-21l136 0c12 0 21 10 21 21 0 12-9 21-21 21z"/>
<glyph glyph-name="add" unicode="&#102;" d="M496 320l-176 0 0 176c0 9-7 16-16 16l-96 0c-9 0-16-7-16-16l0-176-176 0c-9 0-16-7-16-16l0-96c0-9 7-16 16-16l176 0 0-176c0-9 7-16 16-16l96 0c9 0 16 7 16 16l0 176 176 0c9 0 16 7 16 16l0 96c0 9-7 16-16 16z"/>
<glyph glyph-name="delete" unicode="&#103;" d="M97 0c79 0 239 0 318 0 7 0 12 5 12 12 0 83 0 331 0 331l-342 0c0 0 0-248 0-331 0-7 5-12 12-12z m228 279c0 11 8 19 19 19l1 0c10 0 19-8 19-19l0-215c0-11-9-19-19-19l-1 0c-10 0-19 8-19 19z m-89 0c0 11 9 19 20 19l0 0c11 0 20-8 20-19l0-215c0-11-9-19-20-19l0 0c-11 0-20 8-20 19z m-88 0c0 11 9 19 19 19l1 0c11 0 19-8 19-19l0-215c0-11-8-19-19-19l-1 0c-10 0-19 8-19 19z m184 176l0 27c0 17-13 30-30 30l-92 0c-17 0-30-13-30-30l0-27 24 0 0 21c0 7 5 12 11 12l81 0c7 0 12-5 12-12l0-21z m-262-35l0-41c0-7 5-12 12-12l348 0c7 0 12 5 12 12l0 41c0 6-5 11-12 11l-348 0c-7 0-12-5-12-11z"/>
<glyph glyph-name="edit" unicode="&#104;" d="M318 426l104-104-263-264-104 104z m183 25l-46 46c-18 18-47 18-65 0l-45-44 105-104 51 52c14 13 14 36 0 50z m-501-435c-2-9 6-16 15-14l116 28-104 104z"/>
<glyph glyph-name="gear" unicode="&#105;" d="M510 284c0 8-9 13-16 13-24 0-44 14-53 35-9 22-3 47 14 63 6 5 6 14 2 20-12 15-26 29-41 41-6 4-14 4-19-2-15-17-43-23-64-14-22 9-36 31-35 55 1 8-5 14-12 15-19 3-39 3-58 0-7 0-13-7-12-14 0-24-14-46-36-55-20-8-48-2-63 15-5 5-13 6-19 1-16-12-30-26-42-41-4-6-4-14 2-19 18-16 23-42 14-64-9-21-30-35-55-35-9 1-14-5-15-12-3-19-3-39 0-58 0-8 9-13 16-13 23 1 44-13 53-35 9-22 3-47-14-63-6-5-6-14-2-20 12-15 26-29 41-41 6-4 14-4 19 2 15 17 43 23 64 14 22-9 36-31 35-55-1-8 5-14 12-15 10-1 20-2 30-2 9 0 18 1 28 2 7 0 13 7 12 14 0 24 14 46 35 55 22 8 49 2 64-15 5-5 13-6 19-1 16 12 29 26 42 41 4 6 4 14-2 19-18 16-23 42-14 64 8 21 29 35 52 35l3 0c8-1 14 5 15 12 3 19 3 39 0 58z m-254-114c-47 0-85 38-85 85 0 48 38 86 85 86 47 0 86-38 86-86 0-47-39-85-86-85z"/>
<glyph glyph-name="world" unicode="&#106;" d="M511 273c-8 128-110 230-238 238l0 1-34 0 0-1c-128-8-230-110-238-238l-1 0 0-34 1 0c8-128 110-230 238-238l0-1 34 0 0 1c128 8 230 110 238 238l1 0 0 34z m-351 183c-16-22-30-49-40-81l-51 0c22 35 54 63 91 81z m-109-115l60 0c-4-21-7-44-8-68l-68 0c2 24 7 47 16 68z m-16-102l68 0c1-24 4-47 8-68l-60 0c-9 21-14 44-16 68z m34-102l51 0c10-32 24-59 40-81-37 18-69 46-91 81z m170-101c-35 10-65 47-84 101l84 0z m0 135l-93 0c-5 21-8 44-9 68l102 0z m0 102l-102 0c1 24 4 47 9 68l93 0z m0 102l-84 0c19 54 49 91 84 101z m204 0l-51 0c-10 32-24 59-40 81 37-18 69-46 91-81z m-170 101c35-10 65-47 84-101l-84 0z m0-135l93 0c5-21 8-44 9-68l-102 0z m0-102l102 0c-1-24-4-47-9-68l-93 0z m0-203l0 101 84 0c-19-54-49-91-84-101z m79 20c16 22 30 49 40 81l51 0c-22-35-54-63-91-81z m109 115l-60 0c4 21 7 44 8 68l68 0c-2-24-7-47-16-68z m-52 102c-1 24-4 47-8 68l60 0c9-21 14-44 16-68z"/>
<glyph glyph-name="key" unicode="&#107;" d="M351 512c-89 0-161-72-161-161 0-19 4-38 9-57l-199-199 0-95 95 0 0 57 57 0 0 56 57 0 85 86c17-6 36-10 57-10 89 0 161 73 161 162 0 89-72 161-161 161z m48-171c-33 0-57 25-57 57 0 32 24 57 57 57 32 0 56-25 56-57 0-32-24-57-56-57z"/>
<glyph glyph-name="back" unicode="&#108;" d="M219 76c-9 0-19 9-20 11-7 4-173 130-191 148-7 7-8 14-8 18 0 11 9 18 10 19l185 153c2 2 11 11 20 11 4 0 14-1 14-19l0-79 261 0c1 0 2 1 3 1 3 0 18-2 18-24l0-122c0-17-12-21-18-21l-259 0 0-72c0-21-9-24-15-24z m0 15l0-7z"/>
<glyph glyph-name="phone" unicode="&#109;" d="M259 390c86-1 140 4 147-91l106 0c0 148-130 168-256 168-126 0-255-20-255-168l104 0c8 97 68 92 154 91z m-206-139c25 0 47-1 51 24 1 3 1 7 1 12l-105 0c0-38 24-36 53-36z m354 36l-1 0c0-5 1-9 1-12 5-24 27-22 52-22 29 0 53-2 53 34z m-51 25l0 15c0 7-8 7-17 7l-16 0c-9 0-17 0-17-7l0-23-110 0 0 23c0 7-7 7-17 7l-15 0c-10 0-17 0-17-7l0-28c-25-26-107-136-110-150l0-89c0-8 7-15 15-15l398 0c9 0 15 7 15 15l0 90c-3 13-84 123-109 149z m-165-175c-8 0-15 7-15 15 0 8 7 14 15 14 8 0 14-6 14-14 0-8-6-15-14-15z m0 50c-8 0-15 7-15 15 0 8 7 14 15 14 8 0 14-6 14-14 0-8-6-15-14-15z m0 50c-8 0-15 6-15 14 0 8 7 15 15 15 8 0 14-7 14-15 0-8-6-14-14-14z m60-100c-8 0-15 7-15 15 0 8 7 14 15 14 8 0 14-6 14-14 0-8-6-15-14-15z m0 50c-8 0-15 7-15 15 0 8 7 14 15 14 8 0 14-6 14-14 0-8-6-15-14-15z m0 50c-8 0-15 6-15 14 0 8 7 15 15 15 8 0 14-7 14-15 0-8-6-14-14-14z m59-100c-8 0-14 7-14 15 0 8 6 14 14 14 9 0 15-6 15-14 0-8-6-15-15-15z m0 50c-8 0-14 7-14 15 0 8 6 14 14 14 9 0 15-6 15-14 0-8-6-15-15-15z m0 50c-8 0-14 6-14 14 0 8 6 15 14 15 9 0 15-7 15-15 0-8-6-14-15-14z"/>
<glyph glyph-name="cancel" unicode="&#111;" d="M454 393l-44 43-145-145-146 145-43-43 145-146-145-145 43-44 146 146 145-146 44 44-146 145z"/>
<glyph glyph-name="help" unicode="&#112;" d="M253 512c-142-2-255-118-253-259 2-142 118-255 259-253 142 2 255 118 253 259-2 142-118 255-259 253z m-1-412l-2 0c-21 1-37 17-36 38 1 21 16 37 37 37l2 0c22-1 37-17 36-39 0-21-16-36-37-36z m91 182c-5-7-16-16-30-27l-16-11c-8-7-14-13-15-19-2-5-3-6-3-16l0-3-60 0 1 5c0 21 1 33 9 43 14 16 44 35 45 36 4 3 8 7 10 11 7 8 10 15 10 22 0 9-3 18-9 25-5 8-15 11-29 11-14 0-24-4-30-13-6-10-9-20-9-30l0-3-62 0 1 3c1 38 15 65 40 81 15 10 35 15 57 15 30 0 55-7 75-22 20-14 30-36 30-64 0-16-5-31-15-44z"/>
<glyph glyph-name="user" unicode="&#113;" d="M319 156c-12 2-13 37-13 37 0 0 38 37 46 86 21 0 35 53 13 71 1 20 28 153-109 153-137 0-110-133-109-153-22-18-8-71 13-71 8-49 46-86 46-86 0 0-1-35-13-37-41-6-193-73-193-147l512 0c0 74-152 141-193 147z"/>
<glyph glyph-name="notification" unicode="&#114;" d="M136 461l-34 34c-58-44-97-112-102-190l49 0c5 66 36 122 87 156z m327-156l49 0c-5 78-42 146-100 190l-34-34c48-34 80-90 85-156z m-49-12c0 75-51 136-122 153l0 17c0 20-17 37-36 37-20 0-37-17-37-37l0-17c-70-17-122-78-122-153l0-134-48-49 0-24 414 0 0 24-49 49z m-158-280c2 0 7 0 10 0 17 2 29 14 34 29 2 5 4 12 4 19l-97 0c0-26 22-48 49-48z"/>
<glyph glyph-name="web" unicode="&#115;" d="M481 489l-450 0c-17 0-31-14-31-31l0-404c0-17 14-31 31-31l450 0c17 0 31 14 31 31l0 404c0 17-14 31-31 31z m-92-52c0 6 5 11 11 11l11 0c7 0 12-5 12-11l0-13c0-6-5-11-12-11l-11 0c-6 0-11 5-11 11z m-53 0c0 6 5 11 11 11l12 0c6 0 11-5 11-11l0-13c0-6-5-11-11-11l-12 0c-6 0-11 5-11 11z m139-377l-438 0 0 318 438 0z m1 364c0-6-5-11-12-11l-11 0c-6 0-11 5-11 11l0 13c0 6 5 11 11 11l11 0c7 0 12-5 12-11z"/>
<glyph glyph-name="revenue" unicode="&#110;" d="M449 410c0 9-10 12-17 13l0-26c8 0 17 4 17 13z m-25 56c-9 0-15-5-15-11 0-7 5-11 15-13z m4-116c45 0 81 36 81 81 0 45-36 81-81 81-45 0-81-36-81-81 0-45 36-81 81-81z m-36 102c0 18 15 28 32 28l0 7c0 2 2 5 4 5 2 0 4-3 4-5l0-7c11 0 32-7 32-20 0-5-4-8-8-8-9 0-9 14-24 14l0-25c18-4 34-9 34-30 0-18-14-27-34-28l0-8c0-2-2-5-4-5-2 0-4 3-4 5l0 8c-22 1-34 14-34 25 0 5 4 8 9 8 15 0 3-18 25-19l0 28c-20 3-32 12-32 27z m-290-301l-70 0c-13 0-23-10-23-23l0-105c0-13 10-23 23-23l70 0c13 0 23 10 23 23l0 105c0 13-10 23-23 23z m180 82l-69 0c-13 0-24-11-24-24l0-186c0-13 11-23 24-23l69 0c13 0 24 10 24 23l0 186c0 13-11 24-24 24z m181 93l-70 0c-13 0-23-11-23-23l0-280c0-13 10-23 23-23l70 0c13 0 23 10 23 23l0 280c0 12-10 23-23 23z m-140 66l-58 13c-4 0-8-1-11-5-3-3-3-8-1-12l13-24-257-133c-5-3-8-10-5-15 2-4 7-7 11-7 2 0 3 1 5 2l257 132 11-22c2-4 6-6 11-6 0 0 0 0 0 0 5 0 9 3 10 7l23 55c1 3 1 7-1 10-1 3-4 5-8 5z"/>
<glyph glyph-name="cost" unicode="&#116;" d="M58 178c-6 19-9 39-9 60 0 88 60 164 143 188l0-24 109 55-109 55 0-39c-106-28-186-122-186-235 0-16 1-32 4-47l5 23z m356 25l-8-122 102 67-33 20c7 22 10 45 10 70 0 104-68 193-161 226l17-13-52-22c87-20 152-98 152-191 0-16-3-32-5-47z m-23-97c-37-40-88-64-146-64-52 0-100 21-135 55l22 11-102 67 8-122 33 21c44-47 106-76 174-76 60 0 114 22 156 58l-18-6z m-162 268l0-32c-36-7-56-30-56-59 0-32 24-50 59-61 25-9 35-16 35-29 0-13-13-21-32-21-22 0-40 8-55 15l-10-39c13-8 35-13 56-15l0-32 34 0 0 35c38 7 59 32 59 61 0 30-16 48-55 62-29 11-40 18-40 29 0 9 7 19 29 19 24 0 39-7 48-11l10 37c-12 6-26 11-48 12l0 29z"/>
<glyph glyph-name="down" unicode="&#117;" d="M366 239l-89-90 0 260c0 11-10 20-21 20-11 0-20-9-20-20l0-260-90 90c-12 11-25 4-29 0-8-8-8-21 0-29l125-124c8-8 21-8 29 0l124 124c8 8 8 21 0 29-8 8-21 8-29 0z"/>
<glyph glyph-name="up" unicode="&#118;" d="M146 270l90 89 0-259c0-11 9-20 20-20 11 0 20 9 20 20l0 259 90-89c12-11 25-4 29 0 8 8 8 21 0 29l-125 124c-8 8-20 8-28 0l-125-124c-8-8-8-21 0-29 8-8 21-8 29 0z"/>
</font>
</defs>
</svg>
